<?xml version="1.0" encoding="UTF-8"?>
<svg xmlns="http://www.w3.org/2000/svg" viewBox="0 0 800 450" aria-label="Royal drums and a regalia shield at sunrise, representing Uganda's pre-colonial kingdoms"><defs><linearGradient id="pre-sky" x1="0" y1="0" x2="0" y2="1"><stop offset="0%" stop-color="#FFE9A8"></stop><stop offset="100%" stop-color="#FAFAF7"></stop></linearGradient></defs><rect width="800" height="450" fill="url(#pre-sky)"></rect><circle cx="400" cy="160" r="70" fill="#FCDC04" opacity="0.85"></circle><circle cx="400" cy="160" r="110" fill="#FCDC04" opacity="0.25"></circle><path d="M0 320 C 200 270, 420 320, 620 300 S 800 310, 800 310 V450 H0 Z" fill="#16161A" opacity="0.15"></path><path d="M0 360 C 220 320, 520 380, 760 360 S 800 365, 800 365 V450 H0 Z" fill="#0A0A0B"></path><g transform="translate(400 240)"><ellipse cx="0" cy="0" rx="78" ry="104" fill="#0A0A0B"></ellipse><ellipse cx="0" cy="0" rx="78" ry="104" fill="none" stroke="#FCDC04" stroke-width="3"></ellipse><line x1="0" y1="-100" x2="0" y2="100" stroke="#FCDC04" stroke-width="2.5"></line><path d="M-44 -50 Q 0 -28 44 -50" stroke="#D90000" stroke-width="3" fill="none"></path><path d="M-44 50 Q 0 28 44 50" stroke="#D90000" stroke-width="3" fill="none"></path><circle cx="0" cy="0" r="14" fill="#FCDC04"></circle><circle cx="0" cy="0" r="6" fill="#D90000"></circle><line x1="-90" y1="-130" x2="90" y2="130" stroke="#16161A" stroke-width="4"></line><line x1="90" y1="-130" x2="-90" y2="130" stroke="#16161A" stroke-width="4"></line><path d="M-92 -132 L -86 -148 L -78 -130 Z" fill="#FCDC04" stroke="#0A0A0B" stroke-width="1.5"></path><path d="M92 -132 L 86 -148 L 78 -130 Z" fill="#FCDC04" stroke="#0A0A0B" stroke-width="1.5"></path></g><g transform="translate(110 260)"><path d="M0 0 H 120 L 106 130 H 14 Z" fill="#D90000"></path><ellipse cx="60" cy="0" rx="60" ry="12" fill="#FAFAF7" stroke="#0A0A0B" stroke-width="2.5"></ellipse><line x1="12" y1="6" x2="16" y2="124" stroke="#0A0A0B" stroke-width="1.5" opacity="0.45"></line><line x1="30" y1="6" x2="34" y2="124" stroke="#0A0A0B" stroke-width="1.5" opacity="0.45"></line><line x1="48" y1="6" x2="52" y2="124" stroke="#0A0A0B" stroke-width="1.5" opacity="0.45"></line><line x1="66" y1="6" x2="70" y2="124" stroke="#0A0A0B" stroke-width="1.5" opacity="0.45"></line><line x1="84" y1="6" x2="88" y2="124" stroke="#0A0A0B" stroke-width="1.5" opacity="0.45"></line><line x1="102" y1="6" x2="106" y2="124" stroke="#0A0A0B" stroke-width="1.5" opacity="0.45"></line><ellipse cx="60" cy="0" rx="56" ry="9" fill="#16161A" opacity="0.5"></ellipse></g><g transform="translate(610 280)"><path d="M0 0 H 100 L 90 110 H 10 Z" fill="#0A0A0B"></path><ellipse cx="50" cy="0" rx="50" ry="10" fill="#FCDC04" stroke="#0A0A0B" stroke-width="2"></ellipse><ellipse cx="50" cy="0" rx="46" ry="7" fill="#cc9d00"></ellipse></g></svg>